<?xml version="1.0"?>
<svg xmlns="http://www.w3.org/2000/svg" viewBox="0 0 238 166" width="238" height="166" role="img" aria-label="Respawn"><title>Respawn</title><rect x="0" y="0" width="238" height="166" fill="#15102a" shape-rendering="crispEdges"></rect><rect x="20" y="20" width="204" height="132" fill="rgba(0,0,0,0.6)" shape-rendering="crispEdges"></rect><rect x="14" y="14" width="204" height="132" fill="#1a0820" shape-rendering="crispEdges"></rect><rect x="17" y="17" width="198" height="126" fill="#6e6485" shape-rendering="crispEdges"></rect><rect x="20" y="20" width="192" height="120" fill="#1a0820" shape-rendering="crispEdges"></rect><rect x="23" y="23" width="186" height="114" fill="#38304a" shape-rendering="crispEdges"></rect><rect x="14" y="14" width="3" height="3" fill="#15102a" shape-rendering="crispEdges"></rect><rect x="215" y="14" width="3" height="3" fill="#15102a" shape-rendering="crispEdges"></rect><rect x="14" y="143" width="3" height="3" fill="#15102a" shape-rendering="crispEdges"></rect><rect x="215" y="143" width="3" height="3" fill="#15102a" shape-rendering="crispEdges"></rect><rect x="37" y="103" width="4" height="4" fill="rgba(0,0,0,0.8)" shape-rendering="crispEdges"></rect><rect x="41" y="103" width="4" height="4" fill="rgba(0,0,0,0.8)" shape-rendering="crispEdges"></rect><rect x="45" y="103" width="4" height="4" fill="rgba(0,0,0,0.8)" shape-rendering="crispEdges"></rect><rect x="49" y="103" width="4" height="4" fill="rgba(0,0,0,0.8)" shape-rendering="crispEdges"></rect><rect x="37" y="107" width="4" height="4" fill="rgba(0,0,0,0.8)" shape-rendering="crispEdges"></rect><rect x="53" y="107" width="4" height="4" fill="rgba(0,0,0,0.8)" shape-rendering="crispEdges"></rect><rect x="37" y="111" width="4" height="4" fill="rgba(0,0,0,0.8)" shape-rendering="crispEdges"></rect><rect x="53" y="111" width="4" height="4" fill="rgba(0,0,0,0.8)" shape-rendering="crispEdges"></rect><rect x="37" y="115" width="4" height="4" fill="rgba(0,0,0,0.8)" shape-rendering="crispEdges"></rect><rect x="41" y="115" width="4" height="4" fill="rgba(0,0,0,0.8)" shape-rendering="crispEdges"></rect><rect x="45" y="115" width="4" height="4" fill="rgba(0,0,0,0.8)" shape-rendering="crispEdges"></rect><rect x="49" y="115" width="4" height="4" fill="rgba(0,0,0,0.8)" shape-rendering="crispEdges"></rect><rect x="37" y="119" width="4" height="4" fill="rgba(0,0,0,0.8)" shape-rendering="crispEdges"></rect><rect x="45" y="119" width="4" height="4" fill="rgba(0,0,0,0.8)" shape-rendering="crispEdges"></rect><rect x="37" y="123" width="4" height="4" fill="rgba(0,0,0,0.8)" shape-rendering="crispEdges"></rect><rect x="49" y="123" width="4" height="4" fill="rgba(0,0,0,0.8)" shape-rendering="crispEdges"></rect><rect x="37" y="127" width="4" height="4" fill="rgba(0,0,0,0.8)" shape-rendering="crispEdges"></rect><rect x="53" y="127" width="4" height="4" fill="rgba(0,0,0,0.8)" shape-rendering="crispEdges"></rect><rect x="61" y="103" width="4" height="4" fill="rgba(0,0,0,0.8)" shape-rendering="crispEdges"></rect><rect x="65" y="103" width="4" height="4" fill="rgba(0,0,0,0.8)" shape-rendering="crispEdges"></rect><rect x="69" y="103" width="4" height="4" fill="rgba(0,0,0,0.8)" shape-rendering="crispEdges"></rect><rect x="73" y="103" width="4" height="4" fill="rgba(0,0,0,0.8)" shape-rendering="crispEdges"></rect><rect x="77" y="103" width="4" height="4" fill="rgba(0,0,0,0.8)" shape-rendering="crispEdges"></rect><rect x="61" y="107" width="4" height="4" fill="rgba(0,0,0,0.8)" shape-rendering="crispEdges"></rect><rect x="61" y="111" width="4" height="4" fill="rgba(0,0,0,0.8)" shape-rendering="crispEdges"></rect><rect x="61" y="115" width="4" height="4" fill="rgba(0,0,0,0.8)" shape-rendering="crispEdges"></rect><rect x="65" y="115" width="4" height="4" fill="rgba(0,0,0,0.8)" shape-rendering="crispEdges"></rect><rect x="69" y="115" width="4" height="4" fill="rgba(0,0,0,0.8)" shape-rendering="crispEdges"></rect><rect x="73" y="115" width="4" height="4" fill="rgba(0,0,0,0.8)" shape-rendering="crispEdges"></rect><rect x="61" y="119" width="4" height="4" fill="rgba(0,0,0,0.8)" shape-rendering="crispEdges"></rect><rect x="61" y="123" width="4" height="4" fill="rgba(0,0,0,0.8)" shape-rendering="crispEdges"></rect><rect x="61" y="127" width="4" height="4" fill="rgba(0,0,0,0.8)" shape-rendering="crispEdges"></rect><rect x="65" y="127" width="4" height="4" fill="rgba(0,0,0,0.8)" shape-rendering="crispEdges"></rect><rect x="69" y="127" width="4" height="4" fill="rgba(0,0,0,0.8)" shape-rendering="crispEdges"></rect><rect x="73" y="127" width="4" height="4" fill="rgba(0,0,0,0.8)" shape-rendering="crispEdges"></rect><rect x="77" y="127" width="4" height="4" fill="rgba(0,0,0,0.8)" shape-rendering="crispEdges"></rect><rect x="89" y="103" width="4" height="4" fill="rgba(0,0,0,0.8)" shape-rendering="crispEdges"></rect><rect x="93" y="103" width="4" height="4" fill="rgba(0,0,0,0.8)" shape-rendering="crispEdges"></rect><rect x="97" y="103" width="4" height="4" fill="rgba(0,0,0,0.8)" shape-rendering="crispEdges"></rect><rect x="101" y="103" width="4" height="4" fill="rgba(0,0,0,0.8)" shape-rendering="crispEdges"></rect><rect x="85" y="107" width="4" height="4" fill="rgba(0,0,0,0.8)" shape-rendering="crispEdges"></rect><rect x="85" y="111" width="4" height="4" fill="rgba(0,0,0,0.8)" shape-rendering="crispEdges"></rect><rect x="89" y="115" width="4" height="4" fill="rgba(0,0,0,0.8)" shape-rendering="crispEdges"></rect><rect x="93" y="115" width="4" height="4" fill="rgba(0,0,0,0.8)" shape-rendering="crispEdges"></rect><rect x="97" y="115" width="4" height="4" fill="rgba(0,0,0,0.8)" shape-rendering="crispEdges"></rect><rect x="101" y="119" width="4" height="4" fill="rgba(0,0,0,0.8)" shape-rendering="crispEdges"></rect><rect x="101" y="123" width="4" height="4" fill="rgba(0,0,0,0.8)" shape-rendering="crispEdges"></rect><rect x="85" y="127" width="4" height="4" fill="rgba(0,0,0,0.8)" shape-rendering="crispEdges"></rect><rect x="89" y="127" width="4" height="4" fill="rgba(0,0,0,0.8)" shape-rendering="crispEdges"></rect><rect x="93" y="127" width="4" height="4" fill="rgba(0,0,0,0.8)" shape-rendering="crispEdges"></rect><rect x="97" y="127" width="4" height="4" fill="rgba(0,0,0,0.8)" shape-rendering="crispEdges"></rect><rect x="109" y="103" width="4" height="4" fill="rgba(0,0,0,0.8)" shape-rendering="crispEdges"></rect><rect x="113" y="103" width="4" height="4" fill="rgba(0,0,0,0.8)" shape-rendering="crispEdges"></rect><rect x="117" y="103" width="4" height="4" fill="rgba(0,0,0,0.8)" shape-rendering="crispEdges"></rect><rect x="121" y="103" width="4" height="4" fill="rgba(0,0,0,0.8)" shape-rendering="crispEdges"></rect><rect x="109" y="107" width="4" height="4" fill="rgba(0,0,0,0.8)" shape-rendering="crispEdges"></rect><rect x="125" y="107" width="4" height="4" fill="rgba(0,0,0,0.8)" shape-rendering="crispEdges"></rect><rect x="109" y="111" width="4" height="4" fill="rgba(0,0,0,0.8)" shape-rendering="crispEdges"></rect><rect x="125" y="111" width="4" height="4" fill="rgba(0,0,0,0.8)" shape-rendering="crispEdges"></rect><rect x="109" y="115" width="4" height="4" fill="rgba(0,0,0,0.8)" shape-rendering="crispEdges"></rect><rect x="113" y="115" width="4" height="4" fill="rgba(0,0,0,0.8)" shape-rendering="crispEdges"></rect><rect x="117" y="115" width="4" height="4" fill="rgba(0,0,0,0.8)" shape-rendering="crispEdges"></rect><rect x="121" y="115" width="4" height="4" fill="rgba(0,0,0,0.8)" shape-rendering="crispEdges"></rect><rect x="109" y="119" width="4" height="4" fill="rgba(0,0,0,0.8)" shape-rendering="crispEdges"></rect><rect x="109" y="123" width="4" height="4" fill="rgba(0,0,0,0.8)" shape-rendering="crispEdges"></rect><rect x="109" y="127" width="4" height="4" fill="rgba(0,0,0,0.8)" shape-rendering="crispEdges"></rect><rect x="137" y="103" width="4" height="4" fill="rgba(0,0,0,0.8)" shape-rendering="crispEdges"></rect><rect x="141" y="103" width="4" height="4" fill="rgba(0,0,0,0.8)" shape-rendering="crispEdges"></rect><rect x="145" y="103" width="4" height="4" fill="rgba(0,0,0,0.8)" shape-rendering="crispEdges"></rect><rect x="133" y="107" width="4" height="4" fill="rgba(0,0,0,0.8)" shape-rendering="crispEdges"></rect><rect x="149" y="107" width="4" height="4" fill="rgba(0,0,0,0.8)" shape-rendering="crispEdges"></rect><rect x="133" y="111" width="4" height="4" fill="rgba(0,0,0,0.8)" shape-rendering="crispEdges"></rect><rect x="149" y="111" width="4" height="4" fill="rgba(0,0,0,0.8)" shape-rendering="crispEdges"></rect><rect x="133" y="115" width="4" height="4" fill="rgba(0,0,0,0.8)" shape-rendering="crispEdges"></rect><rect x="137" y="115" width="4" height="4" fill="rgba(0,0,0,0.8)" shape-rendering="crispEdges"></rect><rect x="141" y="115" width="4" height="4" fill="rgba(0,0,0,0.8)" shape-rendering="crispEdges"></rect><rect x="145" y="115" width="4" height="4" fill="rgba(0,0,0,0.8)" shape-rendering="crispEdges"></rect><rect x="149" y="115" width="4" height="4" fill="rgba(0,0,0,0.8)" shape-rendering="crispEdges"></rect><rect x="133" y="119" width="4" height="4" fill="rgba(0,0,0,0.8)" shape-rendering="crispEdges"></rect><rect x="149" y="119" width="4" height="4" fill="rgba(0,0,0,0.8)" shape-rendering="crispEdges"></rect><rect x="133" y="123" width="4" height="4" fill="rgba(0,0,0,0.8)" shape-rendering="crispEdges"></rect><rect x="149" y="123" width="4" height="4" fill="rgba(0,0,0,0.8)" shape-rendering="crispEdges"></rect><rect x="133" y="127" width="4" height="4" fill="rgba(0,0,0,0.8)" shape-rendering="crispEdges"></rect><rect x="149" y="127" width="4" height="4" fill="rgba(0,0,0,0.8)" shape-rendering="crispEdges"></rect><rect x="157" y="103" width="4" height="4" fill="rgba(0,0,0,0.8)" shape-rendering="crispEdges"></rect><rect x="173" y="103" width="4" height="4" fill="rgba(0,0,0,0.8)" shape-rendering="crispEdges"></rect><rect x="157" y="107" width="4" height="4" fill="rgba(0,0,0,0.8)" shape-rendering="crispEdges"></rect><rect x="173" y="107" width="4" height="4" fill="rgba(0,0,0,0.8)" shape-rendering="crispEdges"></rect><rect x="157" y="111" width="4" height="4" fill="rgba(0,0,0,0.8)" shape-rendering="crispEdges"></rect><rect x="173" y="111" width="4" height="4" fill="rgba(0,0,0,0.8)" shape-rendering="crispEdges"></rect><rect x="157" y="115" width="4" height="4" fill="rgba(0,0,0,0.8)" shape-rendering="crispEdges"></rect><rect x="165" y="115" width="4" height="4" fill="rgba(0,0,0,0.8)" shape-rendering="crispEdges"></rect><rect x="173" y="115" width="4" height="4" fill="rgba(0,0,0,0.8)" shape-rendering="crispEdges"></rect><rect x="157" y="119" width="4" height="4" fill="rgba(0,0,0,0.8)" shape-rendering="crispEdges"></rect><rect x="165" y="119" width="4" height="4" fill="rgba(0,0,0,0.8)" shape-rendering="crispEdges"></rect><rect x="173" y="119" width="4" height="4" fill="rgba(0,0,0,0.8)" shape-rendering="crispEdges"></rect><rect x="157" y="123" width="4" height="4" fill="rgba(0,0,0,0.8)" shape-rendering="crispEdges"></rect><rect x="161" y="123" width="4" height="4" fill="rgba(0,0,0,0.8)" shape-rendering="crispEdges"></rect><rect x="169" y="123" width="4" height="4" fill="rgba(0,0,0,0.8)" shape-rendering="crispEdges"></rect><rect x="173" y="123" width="4" height="4" fill="rgba(0,0,0,0.8)" shape-rendering="crispEdges"></rect><rect x="157" y="127" width="4" height="4" fill="rgba(0,0,0,0.8)" shape-rendering="crispEdges"></rect><rect x="173" y="127" width="4" height="4" fill="rgba(0,0,0,0.8)" shape-rendering="crispEdges"></rect><rect x="181" y="103" width="4" height="4" fill="rgba(0,0,0,0.8)" shape-rendering="crispEdges"></rect><rect x="197" y="103" width="4" height="4" fill="rgba(0,0,0,0.8)" shape-rendering="crispEdges"></rect><rect x="181" y="107" width="4" height="4" fill="rgba(0,0,0,0.8)" shape-rendering="crispEdges"></rect><rect x="185" y="107" width="4" height="4" fill="rgba(0,0,0,0.8)" shape-rendering="crispEdges"></rect><rect x="197" y="107" width="4" height="4" fill="rgba(0,0,0,0.8)" shape-rendering="crispEdges"></rect><rect x="181" y="111" width="4" height="4" fill="rgba(0,0,0,0.8)" shape-rendering="crispEdges"></rect><rect x="185" y="111" width="4" height="4" fill="rgba(0,0,0,0.8)" shape-rendering="crispEdges"></rect><rect x="197" y="111" width="4" height="4" fill="rgba(0,0,0,0.8)" shape-rendering="crispEdges"></rect><rect x="181" y="115" width="4" height="4" fill="rgba(0,0,0,0.8)" shape-rendering="crispEdges"></rect><rect x="189" y="115" width="4" height="4" fill="rgba(0,0,0,0.8)" shape-rendering="crispEdges"></rect><rect x="197" y="115" width="4" height="4" fill="rgba(0,0,0,0.8)" shape-rendering="crispEdges"></rect><rect x="181" y="119" width="4" height="4" fill="rgba(0,0,0,0.8)" shape-rendering="crispEdges"></rect><rect x="189" y="119" width="4" height="4" fill="rgba(0,0,0,0.8)" shape-rendering="crispEdges"></rect><rect x="197" y="119" width="4" height="4" fill="rgba(0,0,0,0.8)" shape-rendering="crispEdges"></rect><rect x="181" y="123" width="4" height="4" fill="rgba(0,0,0,0.8)" shape-rendering="crispEdges"></rect><rect x="193" y="123" width="4" height="4" fill="rgba(0,0,0,0.8)" shape-rendering="crispEdges"></rect><rect x="197" y="123" width="4" height="4" fill="rgba(0,0,0,0.8)" shape-rendering="crispEdges"></rect><rect x="181" y="127" width="4" height="4" fill="rgba(0,0,0,0.8)" shape-rendering="crispEdges"></rect><rect x="197" y="127" width="4" height="4" fill="rgba(0,0,0,0.8)" shape-rendering="crispEdges"></rect><rect x="34" y="100" width="4" height="4" fill="#f6f4ff" shape-rendering="crispEdges"></rect><rect x="38" y="100" width="4" height="4" fill="#f6f4ff" shape-rendering="crispEdges"></rect><rect x="42" y="100" width="4" height="4" fill="#f6f4ff" shape-rendering="crispEdges"></rect><rect x="46" y="100" width="4" height="4" fill="#f6f4ff" shape-rendering="crispEdges"></rect><rect x="34" y="104" width="4" height="4" fill="#f6f4ff" shape-rendering="crispEdges"></rect><rect x="50" y="104" width="4" height="4" fill="#f6f4ff" shape-rendering="crispEdges"></rect><rect x="34" y="108" width="4" height="4" fill="#f6f4ff" shape-rendering="crispEdges"></rect><rect x="50" y="108" width="4" height="4" fill="#f6f4ff" shape-rendering="crispEdges"></rect><rect x="34" y="112" width="4" height="4" fill="#f6f4ff" shape-rendering="crispEdges"></rect><rect x="38" y="112" width="4" height="4" fill="#f6f4ff" shape-rendering="crispEdges"></rect><rect x="42" y="112" width="4" height="4" fill="#f6f4ff" shape-rendering="crispEdges"></rect><rect x="46" y="112" width="4" height="4" fill="#f6f4ff" shape-rendering="crispEdges"></rect><rect x="34" y="116" width="4" height="4" fill="#f6f4ff" shape-rendering="crispEdges"></rect><rect x="42" y="116" width="4" height="4" fill="#f6f4ff" shape-rendering="crispEdges"></rect><rect x="34" y="120" width="4" height="4" fill="#f6f4ff" shape-rendering="crispEdges"></rect><rect x="46" y="120" width="4" height="4" fill="#f6f4ff" shape-rendering="crispEdges"></rect><rect x="34" y="124" width="4" height="4" fill="#f6f4ff" shape-rendering="crispEdges"></rect><rect x="50" y="124" width="4" height="4" fill="#f6f4ff" shape-rendering="crispEdges"></rect><rect x="58" y="100" width="4" height="4" fill="#f6f4ff" shape-rendering="crispEdges"></rect><rect x="62" y="100" width="4" height="4" fill="#f6f4ff" shape-rendering="crispEdges"></rect><rect x="66" y="100" width="4" height="4" fill="#f6f4ff" shape-rendering="crispEdges"></rect><rect x="70" y="100" width="4" height="4" fill="#f6f4ff" shape-rendering="crispEdges"></rect><rect x="74" y="100" width="4" height="4" fill="#f6f4ff" shape-rendering="crispEdges"></rect><rect x="58" y="104" width="4" height="4" fill="#f6f4ff" shape-rendering="crispEdges"></rect><rect x="58" y="108" width="4" height="4" fill="#f6f4ff" shape-rendering="crispEdges"></rect><rect x="58" y="112" width="4" height="4" fill="#f6f4ff" shape-rendering="crispEdges"></rect><rect x="62" y="112" width="4" height="4" fill="#f6f4ff" shape-rendering="crispEdges"></rect><rect x="66" y="112" width="4" height="4" fill="#f6f4ff" shape-rendering="crispEdges"></rect><rect x="70" y="112" width="4" height="4" fill="#f6f4ff" shape-rendering="crispEdges"></rect><rect x="58" y="116" width="4" height="4" fill="#f6f4ff" shape-rendering="crispEdges"></rect><rect x="58" y="120" width="4" height="4" fill="#f6f4ff" shape-rendering="crispEdges"></rect><rect x="58" y="124" width="4" height="4" fill="#f6f4ff" shape-rendering="crispEdges"></rect><rect x="62" y="124" width="4" height="4" fill="#f6f4ff" shape-rendering="crispEdges"></rect><rect x="66" y="124" width="4" height="4" fill="#f6f4ff" shape-rendering="crispEdges"></rect><rect x="70" y="124" width="4" height="4" fill="#f6f4ff" shape-rendering="crispEdges"></rect><rect x="74" y="124" width="4" height="4" fill="#f6f4ff" shape-rendering="crispEdges"></rect><rect x="86" y="100" width="4" height="4" fill="#f6f4ff" shape-rendering="crispEdges"></rect><rect x="90" y="100" width="4" height="4" fill="#f6f4ff" shape-rendering="crispEdges"></rect><rect x="94" y="100" width="4" height="4" fill="#f6f4ff" shape-rendering="crispEdges"></rect><rect x="98" y="100" width="4" height="4" fill="#f6f4ff" shape-rendering="crispEdges"></rect><rect x="82" y="104" width="4" height="4" fill="#f6f4ff" shape-rendering="crispEdges"></rect><rect x="82" y="108" width="4" height="4" fill="#f6f4ff" shape-rendering="crispEdges"></rect><rect x="86" y="112" width="4" height="4" fill="#f6f4ff" shape-rendering="crispEdges"></rect><rect x="90" y="112" width="4" height="4" fill="#f6f4ff" shape-rendering="crispEdges"></rect><rect x="94" y="112" width="4" height="4" fill="#f6f4ff" shape-rendering="crispEdges"></rect><rect x="98" y="116" width="4" height="4" fill="#f6f4ff" shape-rendering="crispEdges"></rect><rect x="98" y="120" width="4" height="4" fill="#f6f4ff" shape-rendering="crispEdges"></rect><rect x="82" y="124" width="4" height="4" fill="#f6f4ff" shape-rendering="crispEdges"></rect><rect x="86" y="124" width="4" height="4" fill="#f6f4ff" shape-rendering="crispEdges"></rect><rect x="90" y="124" width="4" height="4" fill="#f6f4ff" shape-rendering="crispEdges"></rect><rect x="94" y="124" width="4" height="4" fill="#f6f4ff" shape-rendering="crispEdges"></rect><rect x="106" y="100" width="4" height="4" fill="#c071ff" shape-rendering="crispEdges"></rect><rect x="110" y="100" width="4" height="4" fill="#c071ff" shape-rendering="crispEdges"></rect><rect x="114" y="100" width="4" height="4" fill="#c071ff" shape-rendering="crispEdges"></rect><rect x="118" y="100" width="4" height="4" fill="#c071ff" shape-rendering="crispEdges"></rect><rect x="106" y="104" width="4" height="4" fill="#c071ff" shape-rendering="crispEdges"></rect><rect x="122" y="104" width="4" height="4" fill="#c071ff" shape-rendering="crispEdges"></rect><rect x="106" y="108" width="4" height="4" fill="#c071ff" shape-rendering="crispEdges"></rect><rect x="122" y="108" width="4" height="4" fill="#c071ff" shape-rendering="crispEdges"></rect><rect x="106" y="112" width="4" height="4" fill="#c071ff" shape-rendering="crispEdges"></rect><rect x="110" y="112" width="4" height="4" fill="#c071ff" shape-rendering="crispEdges"></rect><rect x="114" y="112" width="4" height="4" fill="#c071ff" shape-rendering="crispEdges"></rect><rect x="118" y="112" width="4" height="4" fill="#c071ff" shape-rendering="crispEdges"></rect><rect x="106" y="116" width="4" height="4" fill="#c071ff" shape-rendering="crispEdges"></rect><rect x="106" y="120" width="4" height="4" fill="#c071ff" shape-rendering="crispEdges"></rect><rect x="106" y="124" width="4" height="4" fill="#c071ff" shape-rendering="crispEdges"></rect><rect x="134" y="100" width="4" height="4" fill="#c071ff" shape-rendering="crispEdges"></rect><rect x="138" y="100" width="4" height="4" fill="#c071ff" shape-rendering="crispEdges"></rect><rect x="142" y="100" width="4" height="4" fill="#c071ff" shape-rendering="crispEdges"></rect><rect x="130" y="104" width="4" height="4" fill="#c071ff" shape-rendering="crispEdges"></rect><rect x="146" y="104" width="4" height="4" fill="#c071ff" shape-rendering="crispEdges"></rect><rect x="130" y="108" width="4" height="4" fill="#c071ff" shape-rendering="crispEdges"></rect><rect x="146" y="108" width="4" height="4" fill="#c071ff" shape-rendering="crispEdges"></rect><rect x="130" y="112" width="4" height="4" fill="#c071ff" shape-rendering="crispEdges"></rect><rect x="134" y="112" width="4" height="4" fill="#c071ff" shape-rendering="crispEdges"></rect><rect x="138" y="112" width="4" height="4" fill="#c071ff" shape-rendering="crispEdges"></rect><rect x="142" y="112" width="4" height="4" fill="#c071ff" shape-rendering="crispEdges"></rect><rect x="146" y="112" width="4" height="4" fill="#c071ff" shape-rendering="crispEdges"></rect><rect x="130" y="116" width="4" height="4" fill="#c071ff" shape-rendering="crispEdges"></rect><rect x="146" y="116" width="4" height="4" fill="#c071ff" shape-rendering="crispEdges"></rect><rect x="130" y="120" width="4" height="4" fill="#c071ff" shape-rendering="crispEdges"></rect><rect x="146" y="120" width="4" height="4" fill="#c071ff" shape-rendering="crispEdges"></rect><rect x="130" y="124" width="4" height="4" fill="#c071ff" shape-rendering="crispEdges"></rect><rect x="146" y="124" width="4" height="4" fill="#c071ff" shape-rendering="crispEdges"></rect><rect x="154" y="100" width="4" height="4" fill="#c071ff" shape-rendering="crispEdges"></rect><rect x="170" y="100" width="4" height="4" fill="#c071ff" shape-rendering="crispEdges"></rect><rect x="154" y="104" width="4" height="4" fill="#c071ff" shape-rendering="crispEdges"></rect><rect x="170" y="104" width="4" height="4" fill="#c071ff" shape-rendering="crispEdges"></rect><rect x="154" y="108" width="4" height="4" fill="#c071ff" shape-rendering="crispEdges"></rect><rect x="170" y="108" width="4" height="4" fill="#c071ff" shape-rendering="crispEdges"></rect><rect x="154" y="112" width="4" height="4" fill="#c071ff" shape-rendering="crispEdges"></rect><rect x="162" y="112" width="4" height="4" fill="#c071ff" shape-rendering="crispEdges"></rect><rect x="170" y="112" width="4" height="4" fill="#c071ff" shape-rendering="crispEdges"></rect><rect x="154" y="116" width="4" height="4" fill="#c071ff" shape-rendering="crispEdges"></rect><rect x="162" y="116" width="4" height="4" fill="#c071ff" shape-rendering="crispEdges"></rect><rect x="170" y="116" width="4" height="4" fill="#c071ff" shape-rendering="crispEdges"></rect><rect x="154" y="120" width="4" height="4" fill="#c071ff" shape-rendering="crispEdges"></rect><rect x="158" y="120" width="4" height="4" fill="#c071ff" shape-rendering="crispEdges"></rect><rect x="166" y="120" width="4" height="4" fill="#c071ff" shape-rendering="crispEdges"></rect><rect x="170" y="120" width="4" height="4" fill="#c071ff" shape-rendering="crispEdges"></rect><rect x="154" y="124" width="4" height="4" fill="#c071ff" shape-rendering="crispEdges"></rect><rect x="170" y="124" width="4" height="4" fill="#c071ff" shape-rendering="crispEdges"></rect><rect x="178" y="100" width="4" height="4" fill="#f6f4ff" shape-rendering="crispEdges"></rect><rect x="194" y="100" width="4" height="4" fill="#f6f4ff" shape-rendering="crispEdges"></rect><rect x="178" y="104" width="4" height="4" fill="#f6f4ff" shape-rendering="crispEdges"></rect><rect x="182" y="104" width="4" height="4" fill="#f6f4ff" shape-rendering="crispEdges"></rect><rect x="194" y="104" width="4" height="4" fill="#f6f4ff" shape-rendering="crispEdges"></rect><rect x="178" y="108" width="4" height="4" fill="#f6f4ff" shape-rendering="crispEdges"></rect><rect x="182" y="108" width="4" height="4" fill="#f6f4ff" shape-rendering="crispEdges"></rect><rect x="194" y="108" width="4" height="4" fill="#f6f4ff" shape-rendering="crispEdges"></rect><rect x="178" y="112" width="4" height="4" fill="#f6f4ff" shape-rendering="crispEdges"></rect><rect x="186" y="112" width="4" height="4" fill="#f6f4ff" shape-rendering="crispEdges"></rect><rect x="194" y="112" width="4" height="4" fill="#f6f4ff" shape-rendering="crispEdges"></rect><rect x="178" y="116" width="4" height="4" fill="#f6f4ff" shape-rendering="crispEdges"></rect><rect x="186" y="116" width="4" height="4" fill="#f6f4ff" shape-rendering="crispEdges"></rect><rect x="194" y="116" width="4" height="4" fill="#f6f4ff" shape-rendering="crispEdges"></rect><rect x="178" y="120" width="4" height="4" fill="#f6f4ff" shape-rendering="crispEdges"></rect><rect x="190" y="120" width="4" height="4" fill="#f6f4ff" shape-rendering="crispEdges"></rect><rect x="194" y="120" width="4" height="4" fill="#f6f4ff" shape-rendering="crispEdges"></rect><rect x="178" y="124" width="4" height="4" fill="#f6f4ff" shape-rendering="crispEdges"></rect><rect x="194" y="124" width="4" height="4" fill="#f6f4ff" shape-rendering="crispEdges"></rect><g transform="translate(82, 32)"><g><g transform="translate(3, 3)"><rect x="4" y="0" width="4" height="4" fill="rgba(0,0,0,0.55)" shape-rendering="crispEdges"></rect><rect x="8" y="0" width="4" height="4" fill="rgba(0,0,0,0.55)" shape-rendering="crispEdges"></rect><rect x="12" y="0" width="4" height="4" fill="rgba(0,0,0,0.55)" shape-rendering="crispEdges"></rect><rect x="28" y="0" width="4" height="4" fill="rgba(0,0,0,0.55)" shape-rendering="crispEdges"></rect><rect x="32" y="0" width="4" height="4" fill="rgba(0,0,0,0.55)" shape-rendering="crispEdges"></rect><rect x="36" y="0" width="4" height="4" fill="rgba(0,0,0,0.55)" shape-rendering="crispEdges"></rect><rect x="52" y="0" width="4" height="4" fill="rgba(0,0,0,0.55)" shape-rendering="crispEdges"></rect><rect x="56" y="0" width="4" height="4" fill="rgba(0,0,0,0.55)" shape-rendering="crispEdges"></rect><rect x="60" y="0" width="4" height="4" fill="rgba(0,0,0,0.55)" shape-rendering="crispEdges"></rect><rect x="0" y="4" width="4" height="4" fill="rgba(0,0,0,0.55)" shape-rendering="crispEdges"></rect><rect x="4" y="4" width="4" height="4" fill="rgba(0,0,0,0.55)" shape-rendering="crispEdges"></rect><rect x="8" y="4" width="4" height="4" fill="rgba(0,0,0,0.55)" shape-rendering="crispEdges"></rect><rect x="12" y="4" width="4" height="4" fill="rgba(0,0,0,0.55)" shape-rendering="crispEdges"></rect><rect x="16" y="4" width="4" height="4" fill="rgba(0,0,0,0.55)" shape-rendering="crispEdges"></rect><rect x="24" y="4" width="4" height="4" fill="rgba(0,0,0,0.55)" shape-rendering="crispEdges"></rect><rect x="28" y="4" width="4" height="4" fill="rgba(0,0,0,0.55)" shape-rendering="crispEdges"></rect><rect x="32" y="4" width="4" height="4" fill="rgba(0,0,0,0.55)" shape-rendering="crispEdges"></rect><rect x="36" y="4" width="4" height="4" fill="rgba(0,0,0,0.55)" shape-rendering="crispEdges"></rect><rect x="40" y="4" width="4" height="4" fill="rgba(0,0,0,0.55)" shape-rendering="crispEdges"></rect><rect x="48" y="4" width="4" height="4" fill="rgba(0,0,0,0.55)" shape-rendering="crispEdges"></rect><rect x="52" y="4" width="4" height="4" fill="rgba(0,0,0,0.55)" shape-rendering="crispEdges"></rect><rect x="56" y="4" width="4" height="4" fill="rgba(0,0,0,0.55)" shape-rendering="crispEdges"></rect><rect x="60" y="4" width="4" height="4" fill="rgba(0,0,0,0.55)" shape-rendering="crispEdges"></rect><rect x="64" y="4" width="4" height="4" fill="rgba(0,0,0,0.55)" shape-rendering="crispEdges"></rect><rect x="0" y="8" width="4" height="4" fill="rgba(0,0,0,0.55)" shape-rendering="crispEdges"></rect><rect x="4" y="8" width="4" height="4" fill="rgba(0,0,0,0.55)" shape-rendering="crispEdges"></rect><rect x="8" y="8" width="4" height="4" fill="rgba(0,0,0,0.55)" shape-rendering="crispEdges"></rect><rect x="12" y="8" width="4" height="4" fill="rgba(0,0,0,0.55)" shape-rendering="crispEdges"></rect><rect x="16" y="8" width="4" height="4" fill="rgba(0,0,0,0.55)" shape-rendering="crispEdges"></rect><rect x="24" y="8" width="4" height="4" fill="rgba(0,0,0,0.55)" shape-rendering="crispEdges"></rect><rect x="28" y="8" width="4" height="4" fill="rgba(0,0,0,0.55)" shape-rendering="crispEdges"></rect><rect x="32" y="8" width="4" height="4" fill="rgba(0,0,0,0.55)" shape-rendering="crispEdges"></rect><rect x="36" y="8" width="4" height="4" fill="rgba(0,0,0,0.55)" shape-rendering="crispEdges"></rect><rect x="40" y="8" width="4" height="4" fill="rgba(0,0,0,0.55)" shape-rendering="crispEdges"></rect><rect x="48" y="8" width="4" height="4" fill="rgba(0,0,0,0.55)" shape-rendering="crispEdges"></rect><rect x="52" y="8" width="4" height="4" fill="rgba(0,0,0,0.55)" shape-rendering="crispEdges"></rect><rect x="56" y="8" width="4" height="4" fill="rgba(0,0,0,0.55)" shape-rendering="crispEdges"></rect><rect x="60" y="8" width="4" height="4" fill="rgba(0,0,0,0.55)" shape-rendering="crispEdges"></rect><rect x="64" y="8" width="4" height="4" fill="rgba(0,0,0,0.55)" shape-rendering="crispEdges"></rect><rect x="4" y="12" width="4" height="4" fill="rgba(0,0,0,0.55)" shape-rendering="crispEdges"></rect><rect x="8" y="12" width="4" height="4" fill="rgba(0,0,0,0.55)" shape-rendering="crispEdges"></rect><rect x="12" y="12" width="4" height="4" fill="rgba(0,0,0,0.55)" shape-rendering="crispEdges"></rect><rect x="28" y="12" width="4" height="4" fill="rgba(0,0,0,0.55)" shape-rendering="crispEdges"></rect><rect x="32" y="12" width="4" height="4" fill="rgba(0,0,0,0.55)" shape-rendering="crispEdges"></rect><rect x="36" y="12" width="4" height="4" fill="rgba(0,0,0,0.55)" shape-rendering="crispEdges"></rect><rect x="52" y="12" width="4" height="4" fill="rgba(0,0,0,0.55)" shape-rendering="crispEdges"></rect><rect x="56" y="12" width="4" height="4" fill="rgba(0,0,0,0.55)" shape-rendering="crispEdges"></rect><rect x="60" y="12" width="4" height="4" fill="rgba(0,0,0,0.55)" shape-rendering="crispEdges"></rect><rect x="20" y="20" width="4" height="4" fill="rgba(0,0,0,0.55)" shape-rendering="crispEdges"></rect><rect x="24" y="20" width="4" height="4" fill="rgba(0,0,0,0.55)" shape-rendering="crispEdges"></rect><rect x="28" y="20" width="4" height="4" fill="rgba(0,0,0,0.55)" shape-rendering="crispEdges"></rect><rect x="32" y="20" width="4" height="4" fill="rgba(0,0,0,0.55)" shape-rendering="crispEdges"></rect><rect x="36" y="20" width="4" height="4" fill="rgba(0,0,0,0.55)" shape-rendering="crispEdges"></rect><rect x="40" y="20" width="4" height="4" fill="rgba(0,0,0,0.55)" shape-rendering="crispEdges"></rect><rect x="44" y="20" width="4" height="4" fill="rgba(0,0,0,0.55)" shape-rendering="crispEdges"></rect><rect x="16" y="24" width="4" height="4" fill="rgba(0,0,0,0.55)" shape-rendering="crispEdges"></rect><rect x="20" y="24" width="4" height="4" fill="rgba(0,0,0,0.55)" shape-rendering="crispEdges"></rect><rect x="24" y="24" width="4" height="4" fill="rgba(0,0,0,0.55)" shape-rendering="crispEdges"></rect><rect x="28" y="24" width="4" height="4" fill="rgba(0,0,0,0.55)" shape-rendering="crispEdges"></rect><rect x="32" y="24" width="4" height="4" fill="rgba(0,0,0,0.55)" shape-rendering="crispEdges"></rect><rect x="36" y="24" width="4" height="4" fill="rgba(0,0,0,0.55)" shape-rendering="crispEdges"></rect><rect x="40" y="24" width="4" height="4" fill="rgba(0,0,0,0.55)" shape-rendering="crispEdges"></rect><rect x="44" y="24" width="4" height="4" fill="rgba(0,0,0,0.55)" shape-rendering="crispEdges"></rect><rect x="48" y="24" width="4" height="4" fill="rgba(0,0,0,0.55)" shape-rendering="crispEdges"></rect><rect x="12" y="28" width="4" height="4" fill="rgba(0,0,0,0.55)" shape-rendering="crispEdges"></rect><rect x="16" y="28" width="4" height="4" fill="rgba(0,0,0,0.55)" shape-rendering="crispEdges"></rect><rect x="20" y="28" width="4" height="4" fill="rgba(0,0,0,0.55)" shape-rendering="crispEdges"></rect><rect x="24" y="28" width="4" height="4" fill="rgba(0,0,0,0.55)" shape-rendering="crispEdges"></rect><rect x="28" y="28" width="4" height="4" fill="rgba(0,0,0,0.55)" shape-rendering="crispEdges"></rect><rect x="32" y="28" width="4" height="4" fill="rgba(0,0,0,0.55)" shape-rendering="crispEdges"></rect><rect x="36" y="28" width="4" height="4" fill="rgba(0,0,0,0.55)" shape-rendering="crispEdges"></rect><rect x="40" y="28" width="4" height="4" fill="rgba(0,0,0,0.55)" shape-rendering="crispEdges"></rect><rect x="44" y="28" width="4" height="4" fill="rgba(0,0,0,0.55)" shape-rendering="crispEdges"></rect><rect x="48" y="28" width="4" height="4" fill="rgba(0,0,0,0.55)" shape-rendering="crispEdges"></rect><rect x="52" y="28" width="4" height="4" fill="rgba(0,0,0,0.55)" shape-rendering="crispEdges"></rect><rect x="12" y="32" width="4" height="4" fill="rgba(0,0,0,0.55)" shape-rendering="crispEdges"></rect><rect x="16" y="32" width="4" height="4" fill="rgba(0,0,0,0.55)" shape-rendering="crispEdges"></rect><rect x="20" y="32" width="4" height="4" fill="rgba(0,0,0,0.55)" shape-rendering="crispEdges"></rect><rect x="24" y="32" width="4" height="4" fill="rgba(0,0,0,0.55)" shape-rendering="crispEdges"></rect><rect x="28" y="32" width="4" height="4" fill="rgba(0,0,0,0.55)" shape-rendering="crispEdges"></rect><rect x="32" y="32" width="4" height="4" fill="rgba(0,0,0,0.55)" shape-rendering="crispEdges"></rect><rect x="36" y="32" width="4" height="4" fill="rgba(0,0,0,0.55)" shape-rendering="crispEdges"></rect><rect x="40" y="32" width="4" height="4" fill="rgba(0,0,0,0.55)" shape-rendering="crispEdges"></rect><rect x="44" y="32" width="4" height="4" fill="rgba(0,0,0,0.55)" shape-rendering="crispEdges"></rect><rect x="48" y="32" width="4" height="4" fill="rgba(0,0,0,0.55)" shape-rendering="crispEdges"></rect><rect x="52" y="32" width="4" height="4" fill="rgba(0,0,0,0.55)" shape-rendering="crispEdges"></rect><rect x="12" y="36" width="4" height="4" fill="rgba(0,0,0,0.55)" shape-rendering="crispEdges"></rect><rect x="16" y="36" width="4" height="4" fill="rgba(0,0,0,0.55)" shape-rendering="crispEdges"></rect><rect x="20" y="36" width="4" height="4" fill="rgba(0,0,0,0.55)" shape-rendering="crispEdges"></rect><rect x="24" y="36" width="4" height="4" fill="rgba(0,0,0,0.55)" shape-rendering="crispEdges"></rect><rect x="28" y="36" width="4" height="4" fill="rgba(0,0,0,0.55)" shape-rendering="crispEdges"></rect><rect x="32" y="36" width="4" height="4" fill="rgba(0,0,0,0.55)" shape-rendering="crispEdges"></rect><rect x="36" y="36" width="4" height="4" fill="rgba(0,0,0,0.55)" shape-rendering="crispEdges"></rect><rect x="40" y="36" width="4" height="4" fill="rgba(0,0,0,0.55)" shape-rendering="crispEdges"></rect><rect x="44" y="36" width="4" height="4" fill="rgba(0,0,0,0.55)" shape-rendering="crispEdges"></rect><rect x="48" y="36" width="4" height="4" fill="rgba(0,0,0,0.55)" shape-rendering="crispEdges"></rect><rect x="52" y="36" width="4" height="4" fill="rgba(0,0,0,0.55)" shape-rendering="crispEdges"></rect><rect x="16" y="40" width="4" height="4" fill="rgba(0,0,0,0.55)" shape-rendering="crispEdges"></rect><rect x="20" y="40" width="4" height="4" fill="rgba(0,0,0,0.55)" shape-rendering="crispEdges"></rect><rect x="24" y="40" width="4" height="4" fill="rgba(0,0,0,0.55)" shape-rendering="crispEdges"></rect><rect x="28" y="40" width="4" height="4" fill="rgba(0,0,0,0.55)" shape-rendering="crispEdges"></rect><rect x="32" y="40" width="4" height="4" fill="rgba(0,0,0,0.55)" shape-rendering="crispEdges"></rect><rect x="36" y="40" width="4" height="4" fill="rgba(0,0,0,0.55)" shape-rendering="crispEdges"></rect><rect x="40" y="40" width="4" height="4" fill="rgba(0,0,0,0.55)" shape-rendering="crispEdges"></rect><rect x="44" y="40" width="4" height="4" fill="rgba(0,0,0,0.55)" shape-rendering="crispEdges"></rect><rect x="48" y="40" width="4" height="4" fill="rgba(0,0,0,0.55)" shape-rendering="crispEdges"></rect><rect x="20" y="44" width="4" height="4" fill="rgba(0,0,0,0.55)" shape-rendering="crispEdges"></rect><rect x="24" y="44" width="4" height="4" fill="rgba(0,0,0,0.55)" shape-rendering="crispEdges"></rect><rect x="28" y="44" width="4" height="4" fill="rgba(0,0,0,0.55)" shape-rendering="crispEdges"></rect><rect x="32" y="44" width="4" height="4" fill="rgba(0,0,0,0.55)" shape-rendering="crispEdges"></rect><rect x="36" y="44" width="4" height="4" fill="rgba(0,0,0,0.55)" shape-rendering="crispEdges"></rect><rect x="40" y="44" width="4" height="4" fill="rgba(0,0,0,0.55)" shape-rendering="crispEdges"></rect><rect x="44" y="44" width="4" height="4" fill="rgba(0,0,0,0.55)" shape-rendering="crispEdges"></rect></g><rect x="4" y="0" width="4" height="4" fill="#2a0814" shape-rendering="crispEdges"></rect><rect x="8" y="0" width="4" height="4" fill="#2a0814" shape-rendering="crispEdges"></rect><rect x="12" y="0" width="4" height="4" fill="#2a0814" shape-rendering="crispEdges"></rect><rect x="28" y="0" width="4" height="4" fill="#2a0814" shape-rendering="crispEdges"></rect><rect x="32" y="0" width="4" height="4" fill="#2a0814" shape-rendering="crispEdges"></rect><rect x="36" y="0" width="4" height="4" fill="#2a0814" shape-rendering="crispEdges"></rect><rect x="52" y="0" width="4" height="4" fill="#2a0814" shape-rendering="crispEdges"></rect><rect x="56" y="0" width="4" height="4" fill="#2a0814" shape-rendering="crispEdges"></rect><rect x="60" y="0" width="4" height="4" fill="#2a0814" shape-rendering="crispEdges"></rect><rect x="0" y="4" width="4" height="4" fill="#2a0814" shape-rendering="crispEdges"></rect><rect x="4" y="4" width="4" height="4" fill="#ff9fb5" shape-rendering="crispEdges"></rect><rect x="8" y="4" width="4" height="4" fill="#ff9fb5" shape-rendering="crispEdges"></rect><rect x="12" y="4" width="4" height="4" fill="#ff9fb5" shape-rendering="crispEdges"></rect><rect x="16" y="4" width="4" height="4" fill="#2a0814" shape-rendering="crispEdges"></rect><rect x="24" y="4" width="4" height="4" fill="#2a0814" shape-rendering="crispEdges"></rect><rect x="28" y="4" width="4" height="4" fill="#ff9fb5" shape-rendering="crispEdges"></rect><rect x="32" y="4" width="4" height="4" fill="#ff9fb5" shape-rendering="crispEdges"></rect><rect x="36" y="4" width="4" height="4" fill="#ff9fb5" shape-rendering="crispEdges"></rect><rect x="40" y="4" width="4" height="4" fill="#2a0814" shape-rendering="crispEdges"></rect><rect x="48" y="4" width="4" height="4" fill="#2a0814" shape-rendering="crispEdges"></rect><rect x="52" y="4" width="4" height="4" fill="#ff9fb5" shape-rendering="crispEdges"></rect><rect x="56" y="4" width="4" height="4" fill="#ff9fb5" shape-rendering="crispEdges"></rect><rect x="60" y="4" width="4" height="4" fill="#ff9fb5" shape-rendering="crispEdges"></rect><rect x="64" y="4" width="4" height="4" fill="#2a0814" shape-rendering="crispEdges"></rect><rect x="0" y="8" width="4" height="4" fill="#2a0814" shape-rendering="crispEdges"></rect><rect x="4" y="8" width="4" height="4" fill="#ff9fb5" shape-rendering="crispEdges"></rect><rect x="8" y="8" width="4" height="4" fill="#ff9fb5" shape-rendering="crispEdges"></rect><rect x="12" y="8" width="4" height="4" fill="#ff9fb5" shape-rendering="crispEdges"></rect><rect x="16" y="8" width="4" height="4" fill="#2a0814" shape-rendering="crispEdges"></rect><rect x="24" y="8" width="4" height="4" fill="#2a0814" shape-rendering="crispEdges"></rect><rect x="28" y="8" width="4" height="4" fill="#ff9fb5" shape-rendering="crispEdges"></rect><rect x="32" y="8" width="4" height="4" fill="#ff9fb5" shape-rendering="crispEdges"></rect><rect x="36" y="8" width="4" height="4" fill="#ff9fb5" shape-rendering="crispEdges"></rect><rect x="40" y="8" width="4" height="4" fill="#2a0814" shape-rendering="crispEdges"></rect><rect x="48" y="8" width="4" height="4" fill="#2a0814" shape-rendering="crispEdges"></rect><rect x="52" y="8" width="4" height="4" fill="#ff9fb5" shape-rendering="crispEdges"></rect><rect x="56" y="8" width="4" height="4" fill="#ff9fb5" shape-rendering="crispEdges"></rect><rect x="60" y="8" width="4" height="4" fill="#ff9fb5" shape-rendering="crispEdges"></rect><rect x="64" y="8" width="4" height="4" fill="#2a0814" shape-rendering="crispEdges"></rect><rect x="4" y="12" width="4" height="4" fill="#2a0814" shape-rendering="crispEdges"></rect><rect x="8" y="12" width="4" height="4" fill="#2a0814" shape-rendering="crispEdges"></rect><rect x="12" y="12" width="4" height="4" fill="#2a0814" shape-rendering="crispEdges"></rect><rect x="28" y="12" width="4" height="4" fill="#2a0814" shape-rendering="crispEdges"></rect><rect x="32" y="12" width="4" height="4" fill="#2a0814" shape-rendering="crispEdges"></rect><rect x="36" y="12" width="4" height="4" fill="#2a0814" shape-rendering="crispEdges"></rect><rect x="52" y="12" width="4" height="4" fill="#2a0814" shape-rendering="crispEdges"></rect><rect x="56" y="12" width="4" height="4" fill="#2a0814" shape-rendering="crispEdges"></rect><rect x="60" y="12" width="4" height="4" fill="#2a0814" shape-rendering="crispEdges"></rect><rect x="20" y="20" width="4" height="4" fill="#2a0814" shape-rendering="crispEdges"></rect><rect x="24" y="20" width="4" height="4" fill="#2a0814" shape-rendering="crispEdges"></rect><rect x="28" y="20" width="4" height="4" fill="#2a0814" shape-rendering="crispEdges"></rect><rect x="32" y="20" width="4" height="4" fill="#2a0814" shape-rendering="crispEdges"></rect><rect x="36" y="20" width="4" height="4" fill="#2a0814" shape-rendering="crispEdges"></rect><rect x="40" y="20" width="4" height="4" fill="#2a0814" shape-rendering="crispEdges"></rect><rect x="44" y="20" width="4" height="4" fill="#2a0814" shape-rendering="crispEdges"></rect><rect x="16" y="24" width="4" height="4" fill="#2a0814" shape-rendering="crispEdges"></rect><rect x="20" y="24" width="4" height="4" fill="#ff9fb5" shape-rendering="crispEdges"></rect><rect x="24" y="24" width="4" height="4" fill="#ff9fb5" shape-rendering="crispEdges"></rect><rect x="28" y="24" width="4" height="4" fill="#ff9fb5" shape-rendering="crispEdges"></rect><rect x="32" y="24" width="4" height="4" fill="#ff9fb5" shape-rendering="crispEdges"></rect><rect x="36" y="24" width="4" height="4" fill="#ff9fb5" shape-rendering="crispEdges"></rect><rect x="40" y="24" width="4" height="4" fill="#ff9fb5" shape-rendering="crispEdges"></rect><rect x="44" y="24" width="4" height="4" fill="#ff9fb5" shape-rendering="crispEdges"></rect><rect x="48" y="24" width="4" height="4" fill="#2a0814" shape-rendering="crispEdges"></rect><rect x="12" y="28" width="4" height="4" fill="#2a0814" shape-rendering="crispEdges"></rect><rect x="16" y="28" width="4" height="4" fill="#ff9fb5" shape-rendering="crispEdges"></rect><rect x="20" y="28" width="4" height="4" fill="#ff9fb5" shape-rendering="crispEdges"></rect><rect x="24" y="28" width="4" height="4" fill="#ff9fb5" shape-rendering="crispEdges"></rect><rect x="28" y="28" width="4" height="4" fill="#ff9fb5" shape-rendering="crispEdges"></rect><rect x="32" y="28" width="4" height="4" fill="#ff9fb5" shape-rendering="crispEdges"></rect><rect x="36" y="28" width="4" height="4" fill="#ff9fb5" shape-rendering="crispEdges"></rect><rect x="40" y="28" width="4" height="4" fill="#ff9fb5" shape-rendering="crispEdges"></rect><rect x="44" y="28" width="4" height="4" fill="#ff9fb5" shape-rendering="crispEdges"></rect><rect x="48" y="28" width="4" height="4" fill="#ff9fb5" shape-rendering="crispEdges"></rect><rect x="52" y="28" width="4" height="4" fill="#2a0814" shape-rendering="crispEdges"></rect><rect x="12" y="32" width="4" height="4" fill="#2a0814" shape-rendering="crispEdges"></rect><rect x="16" y="32" width="4" height="4" fill="#ff9fb5" shape-rendering="crispEdges"></rect><rect x="20" y="32" width="4" height="4" fill="#ff9fb5" shape-rendering="crispEdges"></rect><rect x="24" y="32" width="4" height="4" fill="#ff9fb5" shape-rendering="crispEdges"></rect><rect x="28" y="32" width="4" height="4" fill="#ffd9e4" shape-rendering="crispEdges"></rect><rect x="32" y="32" width="4" height="4" fill="#ffd9e4" shape-rendering="crispEdges"></rect><rect x="36" y="32" width="4" height="4" fill="#ffd9e4" shape-rendering="crispEdges"></rect><rect x="40" y="32" width="4" height="4" fill="#ff9fb5" shape-rendering="crispEdges"></rect><rect x="44" y="32" width="4" height="4" fill="#ff9fb5" shape-rendering="crispEdges"></rect><rect x="48" y="32" width="4" height="4" fill="#ff9fb5" shape-rendering="crispEdges"></rect><rect x="52" y="32" width="4" height="4" fill="#2a0814" shape-rendering="crispEdges"></rect><rect x="12" y="36" width="4" height="4" fill="#2a0814" shape-rendering="crispEdges"></rect><rect x="16" y="36" width="4" height="4" fill="#ff9fb5" shape-rendering="crispEdges"></rect><rect x="20" y="36" width="4" height="4" fill="#ff9fb5" shape-rendering="crispEdges"></rect><rect x="24" y="36" width="4" height="4" fill="#ff9fb5" shape-rendering="crispEdges"></rect><rect x="28" y="36" width="4" height="4" fill="#ff9fb5" shape-rendering="crispEdges"></rect><rect x="32" y="36" width="4" height="4" fill="#ff9fb5" shape-rendering="crispEdges"></rect><rect x="36" y="36" width="4" height="4" fill="#ff9fb5" shape-rendering="crispEdges"></rect><rect x="40" y="36" width="4" height="4" fill="#ff9fb5" shape-rendering="crispEdges"></rect><rect x="44" y="36" width="4" height="4" fill="#ff9fb5" shape-rendering="crispEdges"></rect><rect x="48" y="36" width="4" height="4" fill="#ff9fb5" shape-rendering="crispEdges"></rect><rect x="52" y="36" width="4" height="4" fill="#2a0814" shape-rendering="crispEdges"></rect><rect x="16" y="40" width="4" height="4" fill="#2a0814" shape-rendering="crispEdges"></rect><rect x="20" y="40" width="4" height="4" fill="#ff9fb5" shape-rendering="crispEdges"></rect><rect x="24" y="40" width="4" height="4" fill="#ff9fb5" shape-rendering="crispEdges"></rect><rect x="28" y="40" width="4" height="4" fill="#ff9fb5" shape-rendering="crispEdges"></rect><rect x="32" y="40" width="4" height="4" fill="#ff9fb5" shape-rendering="crispEdges"></rect><rect x="36" y="40" width="4" height="4" fill="#ff9fb5" shape-rendering="crispEdges"></rect><rect x="40" y="40" width="4" height="4" fill="#ff9fb5" shape-rendering="crispEdges"></rect><rect x="44" y="40" width="4" height="4" fill="#ff9fb5" shape-rendering="crispEdges"></rect><rect x="48" y="40" width="4" height="4" fill="#2a0814" shape-rendering="crispEdges"></rect><rect x="20" y="44" width="4" height="4" fill="#2a0814" shape-rendering="crispEdges"></rect><rect x="24" y="44" width="4" height="4" fill="#2a0814" shape-rendering="crispEdges"></rect><rect x="28" y="44" width="4" height="4" fill="#2a0814" shape-rendering="crispEdges"></rect><rect x="32" y="44" width="4" height="4" fill="#2a0814" shape-rendering="crispEdges"></rect><rect x="36" y="44" width="4" height="4" fill="#2a0814" shape-rendering="crispEdges"></rect><rect x="40" y="44" width="4" height="4" fill="#2a0814" shape-rendering="crispEdges"></rect><rect x="44" y="44" width="4" height="4" fill="#2a0814" shape-rendering="crispEdges"></rect></g></g></svg>